<?xml version="1.0" encoding="UTF-8" standalone="no"?>
<!DOCTYPE svg PUBLIC "-//W3C//DTD SVG 1.1//EN"
 "http://www.w3.org/Graphics/SVG/1.1/DTD/svg11.dtd">
<!-- Generated by graphviz version 2.40.1 (20161225.0304)
 -->
<!-- Title: models_diagram Pages: 1 -->
<svg width="302pt" height="503pt"
 viewBox="0.00 0.00 302.00 503.00" xmlns="http://www.w3.org/2000/svg" xmlns:xlink="http://www.w3.org/1999/xlink">
<g id="graph0" class="graph" transform="scale(1 1) rotate(0) translate(36 467)">
<title>models_diagram</title>
<polygon fill="#ffffff" stroke="transparent" points="-36,36 -36,-467 266,-467 266,36 -36,36"/>
<!-- Cart -->
<g id="node1" class="node">
<title>Cart</title>
<polygon fill="#add8e6" stroke="transparent" points="136,-210 136,-232 230,-232 230,-210 136,-210"/>
<polygon fill="none" stroke="#000000" points="136,-210 136,-232 230,-232 230,-210 136,-210"/>
<text text-anchor="start" x="174.392" y="-219" font-family="Times,serif" font-weight="bold" font-size="10.00" fill="#000000">Cart</text>
<polygon fill="none" stroke="#000000" points="136,-188 136,-210 230,-210 230,-188 136,-188"/>
<text text-anchor="start" x="141" y="-197" font-family="Times,serif" text-decoration="underline" font-size="10.00" fill="#000000">seq</text>
<text text-anchor="start" x="154.328" y="-197" font-family="Times,serif" font-size="10.00" fill="#000000">: NUMBER</text>
<polygon fill="none" stroke="#000000" points="136,-166 136,-188 230,-188 230,-166 136,-166"/>
<text text-anchor="start" x="141" y="-174" font-family="Times,serif" font-size="10.00" fill="#000000">id: STRING</text>
<polygon fill="none" stroke="#000000" points="136,-144 136,-166 230,-166 230,-144 136,-144"/>
<text text-anchor="start" x="141" y="-152" font-family="Times,serif" font-size="10.00" fill="#000000">name: STRING</text>
<polygon fill="none" stroke="#000000" points="136,-122 136,-144 230,-144 230,-122 136,-122"/>
<text text-anchor="start" x="141" y="-130" font-family="Times,serif" font-size="10.00" fill="#000000">price: NUMBER</text>
<polygon fill="none" stroke="#000000" points="136,-100 136,-122 230,-122 230,-100 136,-100"/>
<text text-anchor="start" x="141" y="-108" font-family="Times,serif" font-size="10.00" fill="#000000">image: STRING</text>
<polygon fill="none" stroke="#000000" points="136,-78 136,-100 230,-100 230,-78 136,-78"/>
<text text-anchor="start" x="140.652" y="-86" font-family="Times,serif" font-size="10.00" fill="#000000">recordStatus: ENUM</text>
<polygon fill="none" stroke="#000000" points="136,-56 136,-78 230,-78 230,-56 136,-56"/>
<text text-anchor="start" x="141" y="-64" font-family="Times,serif" font-size="10.00" fill="#000000">createdAt: DATE</text>
<polygon fill="none" stroke="#000000" points="136,-34 136,-56 230,-56 230,-34 136,-34"/>
<text text-anchor="start" x="141" y="-42" font-family="Times,serif" font-size="10.00" fill="#000000">updatedAt: DATE</text>
</g>
<!-- Product -->
<g id="node2" class="node">
<title>Product</title>
<polygon fill="#add8e6" stroke="transparent" points="0,-198 0,-220 94,-220 94,-198 0,-198"/>
<polygon fill="none" stroke="#000000" points="0,-198 0,-220 94,-220 94,-198 0,-198"/>
<text text-anchor="start" x="31.447" y="-207" font-family="Times,serif" font-weight="bold" font-size="10.00" fill="#000000">Product</text>
<polygon fill="none" stroke="#000000" points="0,-176 0,-198 94,-198 94,-176 0,-176"/>
<text text-anchor="start" x="5" y="-185" font-family="Times,serif" text-decoration="underline" font-size="10.00" fill="#000000">seq</text>
<text text-anchor="start" x="18.328" y="-185" font-family="Times,serif" font-size="10.00" fill="#000000">: NUMBER</text>
<polygon fill="none" stroke="#000000" points="0,-154 0,-176 94,-176 94,-154 0,-154"/>
<text text-anchor="start" x="5" y="-162" font-family="Times,serif" font-size="10.00" fill="#000000">id: STRING</text>
<polygon fill="none" stroke="#000000" points="0,-132 0,-154 94,-154 94,-132 0,-132"/>
<text text-anchor="start" x="5" y="-140" font-family="Times,serif" font-size="10.00" fill="#000000">name: STRING</text>
<polygon fill="none" stroke="#000000" points="0,-110 0,-132 94,-132 94,-110 0,-110"/>
<text text-anchor="start" x="5" y="-118" font-family="Times,serif" font-size="10.00" fill="#000000">price: NUMBER</text>
<polygon fill="none" stroke="#000000" points="0,-88 0,-110 94,-110 94,-88 0,-88"/>
<text text-anchor="start" x="5" y="-96" font-family="Times,serif" font-size="10.00" fill="#000000">date: STRING</text>
<polygon fill="none" stroke="#000000" points="0,-66 0,-88 94,-88 94,-66 0,-66"/>
<text text-anchor="start" x="5" y="-74" font-family="Times,serif" font-size="10.00" fill="#000000">image: STRING</text>
<polygon fill="none" stroke="#000000" points="0,-44 0,-66 94,-66 94,-44 0,-44"/>
<text text-anchor="start" x="4.652" y="-52" font-family="Times,serif" font-size="10.00" fill="#000000">recordStatus: ENUM</text>
<polygon fill="none" stroke="#000000" points="0,-22 0,-44 94,-44 94,-22 0,-22"/>
<text text-anchor="start" x="5" y="-30" font-family="Times,serif" font-size="10.00" fill="#000000">createdAt: DATE</text>
<polygon fill="none" stroke="#000000" points="0,0 0,-22 94,-22 94,0 0,0"/>
<text text-anchor="start" x="5" y="-8" font-family="Times,serif" font-size="10.00" fill="#000000">updatedAt: DATE</text>
</g>
<!-- Users -->
<g id="node3" class="node">
<title>Users</title>
<polygon fill="#add8e6" stroke="transparent" points="0,-409 0,-431 94,-431 94,-409 0,-409"/>
<polygon fill="none" stroke="#000000" points="0,-409 0,-431 94,-431 94,-409 0,-409"/>
<text text-anchor="start" x="35.6175" y="-418" font-family="Times,serif" font-weight="bold" font-size="10.00" fill="#000000">Users</text>
<polygon fill="none" stroke="#000000" points="0,-387 0,-409 94,-409 94,-387 0,-387"/>
<text text-anchor="start" x="5" y="-396" font-family="Times,serif" text-decoration="underline" font-size="10.00" fill="#000000">seq</text>
<text text-anchor="start" x="18.328" y="-396" font-family="Times,serif" font-size="10.00" fill="#000000">: NUMBER</text>
<polygon fill="none" stroke="#000000" points="0,-365 0,-387 94,-387 94,-365 0,-365"/>
<text text-anchor="start" x="5" y="-373" font-family="Times,serif" font-size="10.00" fill="#000000">id: STRING</text>
<polygon fill="none" stroke="#000000" points="0,-343 0,-365 94,-365 94,-343 0,-343"/>
<text text-anchor="start" x="5" y="-351" font-family="Times,serif" font-size="10.00" fill="#000000">user: JSON</text>
<polygon fill="none" stroke="#000000" points="0,-321 0,-343 94,-343 94,-321 0,-321"/>
<text text-anchor="start" x="5" y="-329" font-family="Times,serif" font-size="10.00" fill="#000000">productId: STRING</text>
<polygon fill="none" stroke="#000000" points="0,-299 0,-321 94,-321 94,-299 0,-299"/>
<text text-anchor="start" x="4.652" y="-307" font-family="Times,serif" font-size="10.00" fill="#000000">recordStatus: ENUM</text>
<polygon fill="none" stroke="#000000" points="0,-277 0,-299 94,-299 94,-277 0,-277"/>
<text text-anchor="start" x="5" y="-285" font-family="Times,serif" font-size="10.00" fill="#000000">createdAt: DATE</text>
<polygon fill="none" stroke="#000000" points="0,-255 0,-277 94,-277 94,-255 0,-255"/>
<text text-anchor="start" x="5" y="-263" font-family="Times,serif" font-size="10.00" fill="#000000">updatedAt: DATE</text>
</g>
</g>
</svg>
